<svg width="135" height="135" viewBox="0 0 135 135" fill="none" xmlns="http://www.w3.org/2000/svg">
<path d="M75.794 15.168C75.2433 15.168 74.7253 15.028 74.24 14.748C73.764 14.468 73.3767 14.062 73.078 13.53C72.7887 12.998 72.644 12.3587 72.644 11.612C72.644 10.8467 72.7887 10.198 73.078 9.666C73.3767 9.134 73.764 8.728 74.24 8.448C74.7253 8.168 75.2433 8.028 75.794 8.028C76.354 8.028 76.872 8.168 77.348 8.448C77.824 8.728 78.2067 9.134 78.496 9.666C78.7947 10.198 78.944 10.8467 78.944 11.612C78.944 12.3587 78.7947 12.998 78.496 13.53C78.2067 14.062 77.824 14.468 77.348 14.748C76.872 15.028 76.354 15.168 75.794 15.168ZM75.794 14.216C76.382 14.216 76.8533 13.978 77.208 13.502C77.572 13.0167 77.754 12.3867 77.754 11.612C77.754 10.828 77.572 10.1933 77.208 9.708C76.8533 9.22267 76.382 8.98 75.794 8.98C75.2153 8.98 74.744 9.22267 74.38 9.708C74.016 10.1933 73.834 10.828 73.834 11.612C73.834 12.3867 74.016 13.0167 74.38 13.502C74.744 13.978 75.2153 14.216 75.794 14.216Z" fill="white"/>
<path d="M90.148 24V17.196H91.478L92.808 20.388C92.9107 20.668 93.0133 20.948 93.116 21.228C93.228 21.4987 93.3307 21.7693 93.424 22.04H93.48C93.5827 21.7693 93.6853 21.4987 93.788 21.228C93.9 20.948 94.0027 20.668 94.096 20.388L95.398 17.196H96.714V24H95.664V20.948C95.664 20.7427 95.6687 20.5047 95.678 20.234C95.6967 19.954 95.7153 19.6693 95.734 19.38C95.762 19.0907 95.7853 18.8293 95.804 18.596H95.748C95.6547 18.8573 95.552 19.128 95.44 19.408C95.328 19.688 95.2207 19.954 95.118 20.206L93.83 23.356H93.06L91.744 20.206C91.6507 19.954 91.548 19.688 91.436 19.408C91.324 19.128 91.2167 18.8573 91.114 18.596H91.058C91.0767 18.8293 91.0953 19.0907 91.114 19.38C91.1327 19.6693 91.1467 19.954 91.156 20.234C91.1747 20.5047 91.184 20.7427 91.184 20.948V24H90.148Z" fill="white"/>
<path d="M115.646 52V46.134H113.364V45.196H119.076V46.134H116.794V52H115.646Z" fill="white"/>
<path d="M114.906 88.168C114.299 88.168 113.749 88.028 113.254 87.748C112.759 87.4587 112.367 87.048 112.078 86.516C111.789 85.984 111.644 85.3493 111.644 84.612C111.644 83.8653 111.789 83.226 112.078 82.694C112.377 82.162 112.759 81.7513 113.226 81.462C113.693 81.1727 114.183 81.028 114.696 81.028C115.564 81.028 116.231 81.3173 116.698 81.896C117.174 82.4747 117.412 83.2493 117.412 84.22C117.412 84.3413 117.407 84.4627 117.398 84.584C117.398 84.696 117.389 84.794 117.37 84.878H112.778C112.825 85.5967 113.049 86.1707 113.45 86.6C113.861 87.0293 114.393 87.244 115.046 87.244C115.373 87.244 115.671 87.1973 115.942 87.104C116.222 87.0013 116.488 86.8707 116.74 86.712L117.146 87.468C116.857 87.6547 116.525 87.818 116.152 87.958C115.788 88.098 115.373 88.168 114.906 88.168ZM112.764 84.052H116.404C116.404 83.3613 116.255 82.8387 115.956 82.484C115.667 82.12 115.256 81.938 114.724 81.938C114.248 81.938 113.819 82.1247 113.436 82.498C113.063 82.862 112.839 83.38 112.764 84.052Z" fill="white"/>
<path d="M102.148 109V102.196H103.296V104.702H104.584C105.387 104.702 106.035 104.87 106.53 105.206C107.034 105.542 107.286 106.083 107.286 106.83C107.286 107.586 107.034 108.137 106.53 108.482C106.035 108.827 105.387 109 104.584 109H102.148ZM103.296 108.076H104.458C105.587 108.076 106.152 107.661 106.152 106.83C106.152 106.401 106.012 106.088 105.732 105.892C105.461 105.696 105.037 105.598 104.458 105.598H103.296V108.076Z" fill="white"/>
<path d="M80.932 120.12L80.372 119.714L81.17 118.398L79.812 117.838L80.022 117.194L81.45 117.544L81.576 116.032H82.262L82.388 117.53L83.83 117.194L84.04 117.838L82.682 118.398L83.466 119.714L82.92 120.12L81.926 118.916L80.932 120.12Z" fill="white"/>
<path d="M55.794 129.168C55.2433 129.168 54.7253 129.028 54.24 128.748C53.764 128.468 53.3767 128.062 53.078 127.53C52.7887 126.998 52.644 126.359 52.644 125.612C52.644 124.847 52.7887 124.198 53.078 123.666C53.3767 123.134 53.764 122.728 54.24 122.448C54.7253 122.168 55.2433 122.028 55.794 122.028C56.354 122.028 56.872 122.168 57.348 122.448C57.824 122.728 58.2067 123.134 58.496 123.666C58.7947 124.198 58.944 124.847 58.944 125.612C58.944 126.359 58.7947 126.998 58.496 127.53C58.2067 128.062 57.824 128.468 57.348 128.748C56.872 129.028 56.354 129.168 55.794 129.168ZM55.794 128.216C56.382 128.216 56.8533 127.978 57.208 127.502C57.572 127.017 57.754 126.387 57.754 125.612C57.754 124.828 57.572 124.193 57.208 123.708C56.8533 123.223 56.382 122.98 55.794 122.98C55.2153 122.98 54.744 123.223 54.38 123.708C54.016 124.193 53.834 124.828 53.834 125.612C53.834 126.387 54.016 127.017 54.38 127.502C54.744 127.978 55.2153 128.216 55.794 128.216Z" fill="white"/>
<path d="M24.148 119V112.196H25.478L26.808 115.388C26.9107 115.668 27.0133 115.948 27.116 116.228C27.228 116.499 27.3307 116.769 27.424 117.04H27.48C27.5827 116.769 27.6853 116.499 27.788 116.228C27.9 115.948 28.0027 115.668 28.096 115.388L29.398 112.196H30.714V119H29.664V115.948C29.664 115.743 29.6687 115.505 29.678 115.234C29.6967 114.954 29.7153 114.669 29.734 114.38C29.762 114.091 29.7853 113.829 29.804 113.596H29.748C29.6547 113.857 29.552 114.128 29.44 114.408C29.328 114.688 29.2207 114.954 29.118 115.206L27.83 118.356H27.06L25.744 115.206C25.6507 114.954 25.548 114.688 25.436 114.408C25.324 114.128 25.2167 113.857 25.114 113.596H25.058C25.0767 113.829 25.0953 114.091 25.114 114.38C25.1327 114.669 25.1467 114.954 25.156 115.234C25.1747 115.505 25.184 115.743 25.184 115.948V119H24.148Z" fill="white"/>
<path d="M4.646 91V85.134H2.364V84.196H8.076V85.134H5.794V91H4.646Z" fill="white"/>
<path d="M3.906 55.168C3.29933 55.168 2.74867 55.028 2.254 54.748C1.75933 54.4587 1.36733 54.048 1.078 53.516C0.788667 52.984 0.644 52.3493 0.644 51.612C0.644 50.8653 0.788667 50.226 1.078 49.694C1.37667 49.162 1.75933 48.7513 2.226 48.462C2.69267 48.1727 3.18267 48.028 3.696 48.028C4.564 48.028 5.23133 48.3173 5.698 48.896C6.174 49.4747 6.412 50.2493 6.412 51.22C6.412 51.3413 6.40733 51.4627 6.398 51.584C6.398 51.696 6.38867 51.794 6.37 51.878H1.778C1.82467 52.5967 2.04867 53.1707 2.45 53.6C2.86067 54.0293 3.39267 54.244 4.046 54.244C4.37267 54.244 4.67133 54.1973 4.942 54.104C5.222 54.0013 5.488 53.8707 5.74 53.712L6.146 54.468C5.85667 54.6547 5.52533 54.818 5.152 54.958C4.788 55.098 4.37267 55.168 3.906 55.168ZM1.764 51.052H5.404C5.404 50.3613 5.25467 49.8387 4.956 49.484C4.66667 49.12 4.256 48.938 3.724 48.938C3.248 48.938 2.81867 49.1247 2.436 49.498C2.06267 49.862 1.83867 50.38 1.764 51.052Z" fill="white"/>
<path d="M14.148 33V26.196H15.296V28.702H16.584C17.3867 28.702 18.0353 28.87 18.53 29.206C19.034 29.542 19.286 30.0833 19.286 30.83C19.286 31.586 19.034 32.1367 18.53 32.482C18.0353 32.8273 17.3867 33 16.584 33H14.148ZM15.296 32.076H16.458C17.5873 32.076 18.152 31.6607 18.152 30.83C18.152 30.4007 18.012 30.088 17.732 29.892C17.4613 29.696 17.0367 29.598 16.458 29.598H15.296V32.076Z" fill="white"/>
<path d="M34.932 16.12L34.372 15.714L35.17 14.398L33.812 13.838L34.022 13.194L35.45 13.544L35.576 12.032H36.262L36.388 13.53L37.83 13.194L38.04 13.838L36.682 14.398L37.466 15.714L36.92 16.12L35.926 14.916L34.932 16.12Z" fill="white"/>
<path d="M63.26 15V5.816H69.77V15H68.608V6.796H64.422V15H63.26Z" fill="white"/>
<path d="M109.794 43.168C109.243 43.168 108.725 43.028 108.24 42.748C107.764 42.468 107.377 42.062 107.078 41.53C106.789 40.998 106.644 40.3587 106.644 39.612C106.644 38.8467 106.789 38.198 107.078 37.666C107.377 37.134 107.764 36.728 108.24 36.448C108.725 36.168 109.243 36.028 109.794 36.028C110.354 36.028 110.872 36.168 111.348 36.448C111.824 36.728 112.207 37.134 112.496 37.666C112.795 38.198 112.944 38.8467 112.944 39.612C112.944 40.3587 112.795 40.998 112.496 41.53C112.207 42.062 111.824 42.468 111.348 42.748C110.872 43.028 110.354 43.168 109.794 43.168ZM109.794 42.216C110.382 42.216 110.853 41.978 111.208 41.502C111.572 41.0167 111.754 40.3867 111.754 39.612C111.754 38.828 111.572 38.1933 111.208 37.708C110.853 37.2227 110.382 36.98 109.794 36.98C109.215 36.98 108.744 37.2227 108.38 37.708C108.016 38.1933 107.834 38.828 107.834 39.612C107.834 40.3867 108.016 41.0167 108.38 41.502C108.744 41.978 109.215 42.216 109.794 42.216Z" fill="white"/>
<path d="M110.646 101V95.134H108.364V94.196H114.076V95.134H111.794V101H110.646Z" fill="white"/>
<path d="M63.26 130V120.816H69.77V130H68.608V121.796H64.422V130H63.26Z" fill="white"/>
<path d="M9.794 100.168C9.24333 100.168 8.72533 100.028 8.24 99.748C7.764 99.468 7.37667 99.062 7.078 98.53C6.78867 97.998 6.644 97.3587 6.644 96.612C6.644 95.8467 6.78867 95.198 7.078 94.666C7.37667 94.134 7.764 93.728 8.24 93.448C8.72533 93.168 9.24333 93.028 9.794 93.028C10.354 93.028 10.872 93.168 11.348 93.448C11.824 93.728 12.2067 94.134 12.496 94.666C12.7947 95.198 12.944 95.8467 12.944 96.612C12.944 97.3587 12.7947 97.998 12.496 98.53C12.2067 99.062 11.824 99.468 11.348 99.748C10.872 100.028 10.354 100.168 9.794 100.168ZM9.794 99.216C10.382 99.216 10.8533 98.978 11.208 98.502C11.572 98.0167 11.754 97.3867 11.754 96.612C11.754 95.828 11.572 95.1933 11.208 94.708C10.8533 94.2227 10.382 93.98 9.794 93.98C9.21533 93.98 8.744 94.2227 8.38 94.708C8.016 95.1933 7.834 95.828 7.834 96.612C7.834 97.3867 8.016 98.0167 8.38 98.502C8.744 98.978 9.21533 99.216 9.794 99.216Z" fill="white"/>
<path d="M8.646 43V37.134H6.364V36.196H12.076V37.134H9.794V43H8.646Z" fill="white"/>
<path d="M84.836 18.168C84.2387 18.168 83.6973 18.028 83.212 17.748C82.7267 17.468 82.344 17.062 82.064 16.53C81.784 15.998 81.644 15.3587 81.644 14.612C81.644 13.8467 81.7933 13.198 82.092 12.666C82.4 12.134 82.8013 11.728 83.296 11.448C83.8 11.168 84.3413 11.028 84.92 11.028C85.368 11.028 85.7507 11.1073 86.068 11.266C86.3947 11.4247 86.6747 11.6113 86.908 11.826L86.32 12.582C86.124 12.4047 85.914 12.26 85.69 12.148C85.4753 12.036 85.2327 11.98 84.962 11.98C84.5513 11.98 84.1827 12.092 83.856 12.316C83.5387 12.5307 83.2867 12.8387 83.1 13.24C82.9227 13.632 82.834 14.0893 82.834 14.612C82.834 15.3867 83.0253 16.0167 83.408 16.502C83.8 16.978 84.3087 17.216 84.934 17.216C85.2513 17.216 85.5453 17.1507 85.816 17.02C86.0867 16.88 86.3247 16.7167 86.53 16.53L87.034 17.3C86.726 17.5707 86.3853 17.7853 86.012 17.944C85.6387 18.0933 85.2467 18.168 84.836 18.168Z" fill="white"/>
<path d="M1.148 80.87V71.196H2.1L2.198 71.98H2.24C2.548 71.7187 2.884 71.4947 3.248 71.308C3.62133 71.1213 4.00867 71.028 4.41 71.028C5.28733 71.028 5.95467 71.3453 6.412 71.98C6.86933 72.6053 7.098 73.4453 7.098 74.5C7.098 75.2653 6.958 75.9233 6.678 76.474C6.40733 77.0247 6.048 77.4447 5.6 77.734C5.16133 78.0233 4.68067 78.168 4.158 78.168C3.84067 78.168 3.52333 78.098 3.206 77.958C2.898 77.818 2.58533 77.6267 2.268 77.384L2.296 78.574V80.87H1.148ZM3.962 77.202C4.522 77.202 4.984 76.964 5.348 76.488C5.72133 76.0027 5.908 75.34 5.908 74.5C5.908 73.7533 5.768 73.1513 5.488 72.694C5.21733 72.2273 4.76 71.994 4.116 71.994C3.82667 71.994 3.53267 72.0733 3.234 72.232C2.94467 72.3907 2.632 72.6193 2.296 72.918V76.488C2.604 76.7493 2.90267 76.936 3.192 77.048C3.48133 77.1507 3.738 77.202 3.962 77.202Z" fill="white"/>
<path d="M42.836 126.168C42.2387 126.168 41.6973 126.028 41.212 125.748C40.7267 125.468 40.344 125.062 40.064 124.53C39.784 123.998 39.644 123.359 39.644 122.612C39.644 121.847 39.7933 121.198 40.092 120.666C40.4 120.134 40.8013 119.728 41.296 119.448C41.8 119.168 42.3413 119.028 42.92 119.028C43.368 119.028 43.7507 119.107 44.068 119.266C44.3947 119.425 44.6747 119.611 44.908 119.826L44.32 120.582C44.124 120.405 43.914 120.26 43.69 120.148C43.4753 120.036 43.2327 119.98 42.962 119.98C42.5513 119.98 42.1827 120.092 41.856 120.316C41.5387 120.531 41.2867 120.839 41.1 121.24C40.9227 121.632 40.834 122.089 40.834 122.612C40.834 123.387 41.0253 124.017 41.408 124.502C41.8 124.978 42.3087 125.216 42.934 125.216C43.2513 125.216 43.5453 125.151 43.816 125.02C44.0867 124.88 44.3247 124.717 44.53 124.53L45.034 125.3C44.726 125.571 44.3853 125.785 44.012 125.944C43.6387 126.093 43.2467 126.168 42.836 126.168Z" fill="white"/>
<path d="M117.148 64.87V55.196H118.1L118.198 55.98H118.24C118.548 55.7187 118.884 55.4947 119.248 55.308C119.621 55.1213 120.009 55.028 120.41 55.028C121.287 55.028 121.955 55.3453 122.412 55.98C122.869 56.6053 123.098 57.4453 123.098 58.5C123.098 59.2653 122.958 59.9233 122.678 60.474C122.407 61.0247 122.048 61.4447 121.6 61.734C121.161 62.0233 120.681 62.168 120.158 62.168C119.841 62.168 119.523 62.098 119.206 61.958C118.898 61.818 118.585 61.6267 118.268 61.384L118.296 62.574V64.87H117.148ZM119.962 61.202C120.522 61.202 120.984 60.964 121.348 60.488C121.721 60.0027 121.908 59.34 121.908 58.5C121.908 57.7533 121.768 57.1513 121.488 56.694C121.217 56.2273 120.76 55.994 120.116 55.994C119.827 55.994 119.533 56.0733 119.234 56.232C118.945 56.3907 118.632 56.6193 118.296 56.918V60.488C118.604 60.7493 118.903 60.936 119.192 61.048C119.481 61.1507 119.738 61.202 119.962 61.202Z" fill="white"/>
</svg>
